<svg version="1.1" xmlns="http://www.w3.org/2000/svg" height="900" width="1600" viewBox="1 1.74 14 11.1" stroke="black" stroke-width="0.05" dash-array="0.1">
    <path
        d="M2 4L1 5 1 11.67C2.12 11.73 2.8 11.62 3.67 11.64 5.45 11.67 6.11 11.91 6.65 12.14 6.95 12.3 7.25 12.45 7.65 12.75L8.35 12.75C8.75 12.45 9.05 12.3 9.35 12.14 9.89 11.91 10.55 11.67 12.33 11.64 13.2 11.62 13.88 11.73 15 11.67L15 5 14 4"
        fill="rgb(217, 182, 126)"></path>
    <path
        d="M2 1.74C2.6 1.8 3.4 1.74 4 1.76 6 1.82 6.46 2.16 7 2.39 7.3 2.55 7.6 2.7 8 3 8.4 2.7 8.7 2.55 9.0 2.39 9.54 2.16 10.0 1.82 12.0 1.76 12.6 1.74 13.4 1.8 14.0 1.74L14 10.74C13.4 10.8 12.6 10.74 12.0 10.76L12 3.76C10.0 3.82 9.54 4.16 9.0 4.39L9 11.39C8.7 11.55 8.4 11.7 8 12 7.6 11.7 7.3 11.55 7 11.39L7 4.39C6.46 4.16 6 3.82 4 3.76L4 10.76C3.4 10.74 2.6 10.8 2 10.74"
        fill="rgb(5, 10, 48)"></path>
    <path
        d="M4 3.76C6 3.82 6.46 4.16 7 4.39L7 11.39C7.3 11.55 7.6 11.7 8 12 8.4 11.7 8.7 11.55 9.0 11.39L9 4.39C9.54 4.16 10.0 3.82 12.0 3.76L12 10.76C10.0 10.82 9.54 11.16 9.0 11.39 8.7 11.55 8.4 11.7 8 12 7.6 11.7 7.3 11.55 7 11.39 6.46 11.16 6 10.82 4 10.76"
        fill="rgb(242, 222, 189)"></path>
</svg>